<svg fill="none" xmlns="http://www.w3.org/2000/svg" viewBox="0 0 80 80">
  <path d="M36.473 29.146a11.412 11.412 0 1 1 7.054 21.707 11.412 11.412 0 0 1-7.054-21.707ZM40 14l.025 8.008-.024-.008-.026.008L40 14ZM29.445 25.43l-4.727-6.464 4.687 6.493.015-.021.025-.008ZM22.897 34.417l-7.624-2.451 7.608 2.498v-.026l.016-.021ZM22.881 45.536l-7.608 2.498 7.624-2.45-.015-.022v-.026ZM29.405 54.54l-4.687 6.494 4.727-6.464-.024-.008-.016-.021ZM39.975 57.992 40 66l.025-8.008-.024.008-.026-.008ZM50.555 54.57l4.727 6.464-4.686-6.493-.015.021-.026.009ZM57.104 45.584l7.624 2.45-7.608-2.498v.026l-.016.022ZM57.12 34.438v.026l7.608-2.498-7.624 2.45.016.022ZM50.596 25.459l4.687-6.493-4.728 6.463.026.009.015.02Z" stroke-linecap="round" stroke-linejoin="round"/>
</svg>